<svg width="13" height="14" viewBox="0 0 13 14" fill="none" xmlns="http://www.w3.org/2000/svg">
<g id="github">
<path id="Vector" d="M6.73254 1.78778C6.0595 1.78778 5.39306 1.92035 4.77125 2.17791C4.14944 2.43547 3.58446 2.81298 3.10855 3.28889C2.1474 4.25003 1.60744 5.55362 1.60744 6.91289C1.60744 9.17818 3.07834 11.1001 5.11301 11.7817C5.36927 11.8227 5.45127 11.6639 5.45127 11.5255C5.45127 11.4076 5.45127 11.0847 5.45127 10.6593C4.03161 10.9668 3.72923 9.97258 3.72923 9.97258C3.49348 9.37806 3.16034 9.21919 3.16034 9.21919C2.69396 8.90143 3.19622 8.91168 3.19622 8.91168C3.70873 8.94755 3.98036 9.43957 3.98036 9.43957C4.42625 10.2186 5.17964 9.98795 5.47177 9.86495C5.51789 9.53182 5.65115 9.30631 5.79465 9.17818C4.65688 9.05006 3.46273 8.6093 3.46273 6.65663C3.46273 6.08775 3.65748 5.63161 3.99061 5.26773C3.93936 5.1396 3.75998 4.60659 4.04186 3.9147C4.04186 3.9147 4.47237 3.77632 5.45127 4.43746C5.85615 4.32471 6.29691 4.26833 6.73254 4.26833C7.16818 4.26833 7.60894 4.32471 8.01382 4.43746C8.99272 3.77632 9.42322 3.9147 9.42322 3.9147C9.70511 4.60659 9.52573 5.1396 9.47448 5.26773C9.80761 5.63161 10.0024 6.08775 10.0024 6.65663C10.0024 8.61442 8.80309 9.04493 7.66019 9.17306C7.84469 9.33194 8.01382 9.64457 8.01382 10.1212C8.01382 10.808 8.01382 11.3615 8.01382 11.5255C8.01382 11.6639 8.09582 11.8279 8.3572 11.7817C10.3919 11.095 11.8577 9.17818 11.8577 6.91289C11.8577 6.23985 11.7251 5.5734 11.4675 4.95159C11.21 4.32979 10.8325 3.7648 10.3565 3.28889C9.88063 2.81298 9.31564 2.43547 8.69384 2.17791C8.07203 1.92035 7.40558 1.78778 6.73254 1.78778Z" fill="#DDDDDD"/>
</g>
</svg>
