<svg width="14" height="14" viewBox="0 0 14 14" fill="none" xmlns="http://www.w3.org/2000/svg">
<g id="linkedin">
<path id="Vector" d="M9.96982 2.30029C10.2417 2.30029 10.5024 2.40829 10.6946 2.60051C10.8869 2.79274 10.9948 3.05346 10.9948 3.32531V10.5005C10.9948 10.7723 10.8869 11.033 10.6946 11.2253C10.5024 11.4175 10.2417 11.5255 9.96982 11.5255H2.79467C2.52282 11.5255 2.2621 11.4175 2.06988 11.2253C1.87765 11.033 1.76965 10.7723 1.76965 10.5005V3.32531C1.76965 3.05346 1.87765 2.79274 2.06988 2.60051C2.2621 2.40829 2.52282 2.30029 2.79467 2.30029H9.96982ZM9.71357 10.2442V7.5279C9.71357 7.08478 9.53754 6.65981 9.22421 6.34648C8.91087 6.03315 8.4859 5.85712 8.04278 5.85712C7.60715 5.85712 7.09976 6.12362 6.85376 6.52338V5.95449H5.42385V10.2442H6.85376V7.71753C6.85376 7.3229 7.17152 7.00002 7.56615 7.00002C7.75645 7.00002 7.93895 7.07561 8.07351 7.21017C8.20807 7.34473 8.28366 7.52723 8.28366 7.71753V10.2442H9.71357ZM3.75819 5.14985C3.98655 5.14985 4.20555 5.05914 4.36703 4.89767C4.5285 4.73619 4.61921 4.51719 4.61921 4.28883C4.61921 3.8122 4.23483 3.42269 3.75819 3.42269C3.52848 3.42269 3.30817 3.51395 3.14574 3.67638C2.98331 3.83881 2.89205 4.05912 2.89205 4.28883C2.89205 4.76547 3.28156 5.14985 3.75819 5.14985ZM4.47058 10.2442V5.95449H3.05093V10.2442H4.47058Z" fill="#DDDDDD"/>
</g>
</svg>
